<svg xmlns="http://www.w3.org/2000/svg" viewBox="0 0 64 64">
  <!-- Blade 1: upper -->
  <path d="M30.6 24.1 C28 18, 27 10, 29.6 4.1 A28 28 0 0 1 57.4 20.2 C52 24, 42 26, 33.4 24.1 A8 8 0 0 0 30.6 24.1Z"
        fill="#1a1a1a"/>

  <!-- Blade 2: lower-right -->
  <path d="M30.6 24.1 C28 18, 27 10, 29.6 4.1 A28 28 0 0 1 57.4 20.2 C52 24, 42 26, 33.4 24.1 A8 8 0 0 0 30.6 24.1Z"
        fill="#1a1a1a" transform="rotate(120 32 32)"/>

  <!-- Blade 3: lower-left -->
  <path d="M30.6 24.1 C28 18, 27 10, 29.6 4.1 A28 28 0 0 1 57.4 20.2 C52 24, 42 26, 33.4 24.1 A8 8 0 0 0 30.6 24.1Z"
        fill="#1a1a1a" transform="rotate(240 32 32)"/>

  <!-- Hub -->
  <circle cx="32" cy="32" r="5" fill="#1a1a1a"/>
</svg>
