<svg xmlns="http://www.w3.org/2000/svg" viewBox="0 0 64 64">
  <!-- White variant for dark backgrounds -->
  <path d="M30.6 24.1 C28 18, 27 10, 29.6 4.1 A28 28 0 0 1 57.4 20.2 C52 24, 42 26, 33.4 24.1 A8 8 0 0 0 30.6 24.1Z"
        fill="#ffffff"/>
  <path d="M30.6 24.1 C28 18, 27 10, 29.6 4.1 A28 28 0 0 1 57.4 20.2 C52 24, 42 26, 33.4 24.1 A8 8 0 0 0 30.6 24.1Z"
        fill="#ffffff" transform="rotate(120 32 32)"/>
  <path d="M30.6 24.1 C28 18, 27 10, 29.6 4.1 A28 28 0 0 1 57.4 20.2 C52 24, 42 26, 33.4 24.1 A8 8 0 0 0 30.6 24.1Z"
        fill="rgba(255,255,255,0.6)" transform="rotate(240 32 32)"/>
  <circle cx="32" cy="32" r="5" fill="#ffffff"/>
</svg>
