<svg xmlns="http://www.w3.org/2000/svg" viewBox="0 0 280 64">
  <defs>
    <linearGradient id="g-orange" x1="0%" y1="0%" x2="100%" y2="100%">
      <stop offset="0%" stop-color="#F97316"/>
      <stop offset="100%" stop-color="#C2410C"/>
    </linearGradient>
    <linearGradient id="g-amber" x1="0%" y1="0%" x2="100%" y2="100%">
      <stop offset="0%" stop-color="#F59E0B"/>
      <stop offset="100%" stop-color="#D97706"/>
    </linearGradient>
  </defs>

  <!-- Icon mark -->
  <g>
    <path d="M30.6 24.1 C28 18, 27 10, 29.6 4.1 A28 28 0 0 1 57.4 20.2 C52 24, 42 26, 33.4 24.1 A8 8 0 0 0 30.6 24.1Z"
          fill="url(#g-orange)"/>
    <path d="M30.6 24.1 C28 18, 27 10, 29.6 4.1 A28 28 0 0 1 57.4 20.2 C52 24, 42 26, 33.4 24.1 A8 8 0 0 0 30.6 24.1Z"
          fill="url(#g-orange)" transform="rotate(120 32 32)"/>
    <path d="M30.6 24.1 C28 18, 27 10, 29.6 4.1 A28 28 0 0 1 57.4 20.2 C52 24, 42 26, 33.4 24.1 A8 8 0 0 0 30.6 24.1Z"
          fill="url(#g-amber)" transform="rotate(240 32 32)"/>
    <circle cx="32" cy="32" r="5" fill="#EA580C"/>
  </g>

  <!-- Wordmark -->
  <text x="76" y="42" font-family="'Inter', 'SF Pro Display', system-ui, -apple-system, 'Segoe UI', sans-serif"
        font-size="32" font-weight="600" letter-spacing="-0.5" fill="#F97316">Tidemill</text>
</svg>
